<?xml version="1.0" encoding="utf-8"?>
<!-- Generator: Adobe Illustrator 24.3.0, SVG Export Plug-In . SVG Version: 6.00 Build 0)  -->
<svg version="1.1" id="レイヤー_1" xmlns="http://www.w3.org/2000/svg" xmlns:xlink="http://www.w3.org/1999/xlink" x="0px"
	 y="0px" viewBox="0 0 56 56" style="enable-background:new 0 0 56 56;" xml:space="preserve">
<g>
	<path d="M44.5,8.4l-8.2,30c-0.1,0.4,0,0.8,0.2,1.2l2.1,3.9l0.1,0.1c0.3,0.4,0.7,0.6,1.2,0.6c0.2,0,0.4,0,0.5-0.1l3.9-2.3
		c0.4-0.2,0.7-0.5,0.8-0.9l8.2-29.9l0-0.1L44.5,8.4z M43.1,40.1L40,41.9l-1.8-3.2l7.3-26.5l4.9,1.3L43.1,40.1z"/>
	<path d="M32,44.6c-0.7,0.5-0.9,1.6-0.4,2.3c0.5,0.7,1.6,0.9,2.3,0.4c0.7-0.5,0.9-1.6,0.4-2.3C33.8,44.3,32.8,44.1,32,44.6z"/>
	<path d="M32.1,41.1c-2.1-5.5-8.9-4.2-14.4-3.1c-4,0.8-8.1,1.5-9.4-0.3c-0.6-0.8-0.5-1.3-0.5-1.5c0.3-1.2,2.6-2.5,4.7-3.6
		c2.6-1.5,5.3-3,6-5.3c0.3-1.1,0.1-2.3-0.6-3.4C15.4,20,8.5,20.8,4,21.3c-0.7,0.1-1.3,0.8-1.2,1.5c0.1,0.7,0.8,1.3,1.5,1.2
		c3.4-0.4,9.8-1.1,11.3,1.3c0.3,0.7,0.4,1.1,0.3,1.2c-0.4,1.3-2.6,2.5-4.7,3.6c-2.7,1.4-5.4,3-6,5.4c-0.3,1.2,0,2.5,0.9,3.7
		c2.3,3.2,7.3,2.3,12.1,1.4c6.1-1.1,10.1-1.7,11.4,1.5c0.1,0.7,0.8,1,1.5,0.9C31.9,42.9,32.4,42,32.1,41.1z"/>
</g>
</svg>
