<?xml version="1.0" encoding="utf-8"?>
<!-- Generator: Adobe Illustrator 24.3.0, SVG Export Plug-In . SVG Version: 6.00 Build 0)  -->
<svg version="1.1" xmlns="http://www.w3.org/2000/svg" xmlns:xlink="http://www.w3.org/1999/xlink" x="0px" y="0px"
	 viewBox="0 0 56 56" style="enable-background:new 0 0 56 56;" xml:space="preserve">
<style type="text/css">
	.st0{display:none;}
	.st1{display:inline;}
</style>
<g id="レイヤー_1">
	<g id="レイヤー_2_1_">
	</g>
	<g id="レイヤー_3">
	</g>
	<polygon points="51.4,12.8 54,12.8 50,6 46,12.8 48.7,12.8 48.7,43.2 46,43.2 50,50 54,43.2 51.4,43.2 	"/>
</g>
<g id="xs" class="st0">
	<g class="st1">
		<path d="M15.4,38.4l-0.9-2L14,35c-0.2-0.5-0.4-1-0.7-1.5c-0.4-0.8-0.6-1.2-0.6-1.3c-0.5-1.2-1-1.8-1.5-1.8c-0.9,0-1.7,0.9-2.3,2.6
			c-0.3-0.1-0.4-0.3-0.4-0.6c0-0.9,0.4-1.8,1.3-2.9c0.9-1,1.7-1.5,2.4-1.5c0.6,0,1.2,0.4,1.6,1.1s1.2,2.2,2.1,4.4l1.1,2.7l0.5-0.8
			l0.9-1.6c2.1-3.8,4.3-5.6,6.5-5.6c0.7,0,1.4,0.1,2,0.4l-2,2c-0.4-0.2-0.7-0.3-1-0.3c-0.8,0-1.7,0.5-2.5,1.4
			c-0.8,0.9-1.9,2.6-3.3,5.1l-0.4,0.8l1.1,2.7l0.6,1.4l0.6,1.4c0.8,2,1.6,3,2.3,3c1,0,1.8-0.8,2.3-2.4c0.4,0.1,0.5,0.4,0.5,0.6
			c0,0.4-0.3,1.1-0.8,1.9c-0.8,1.3-1.8,1.9-2.9,1.9c-0.8,0-1.5-0.4-2-1.3c-0.6-0.8-1.5-2.6-2.5-5.2l-0.8-1.9l-0.3,0.6
			c-2.7,5.1-5.4,7.7-8.1,7.7c-0.6,0-1.2-0.2-1.9-0.5l2.1-2c0.4,0.2,0.8,0.3,1.2,0.3c1.2,0,2.5-0.9,3.8-2.8c1.1-1.5,1.9-2.9,2.5-4.1
			L15.4,38.4z"/>
		<path d="M26.4,44.9l2.4-1.4c0.4,2.3,1.8,3.4,4.1,3.4c1.2,0,2.1-0.3,2.8-0.9c0.7-0.6,1.1-1.4,1.1-2.4c0-1.4-0.8-2.7-2.5-4l-1.7-1.4
			c-1.4-1.1-2.3-2-2.7-2.7c-0.5-0.7-0.7-1.4-0.7-2.2c0-1.5,0.6-2.8,1.8-3.8c1.2-1,2.8-1.5,4.6-1.5c1.5,0,2.9,0.4,4.2,1.1L39.2,31
			l-0.4,0.8c-0.2,0.5-0.4,0.7-0.7,0.7c-0.1,0-0.2,0-0.4-0.1c0.2-0.5,0.2-0.9,0.2-1.2c0-0.6-0.3-1.1-1-1.5c-0.7-0.4-1.5-0.6-2.4-0.6
			c-2.2,0-3.3,0.9-3.3,2.7c0,0.7,0.2,1.3,0.7,1.9c0.5,0.6,1.5,1.5,3.1,2.8l1.4,1.1c1.7,1.4,2.6,2.9,2.6,4.4c0,1.7-0.7,3.1-2.1,4.2
			c-1.4,1.1-3.2,1.7-5.4,1.7C28.8,48,27.2,47,26.4,44.9z"/>
	</g>
</g>
<g id="s" class="st0">
	<path class="st1" d="M14.5,43.7l3.3-2c0.5,3.2,2.5,4.8,5.8,4.8c1.6,0,3-0.4,4-1.3c1-0.9,1.5-2,1.5-3.4c0-1.9-1.2-3.8-3.4-5.7
		l-2.4-1.9c-1.9-1.6-3.2-2.8-3.8-3.7c-0.6-0.9-1-1.9-1-3.1c0-2.1,0.9-3.9,2.6-5.3c1.7-1.4,3.9-2.1,6.5-2.1c2.1,0,4,0.5,5.9,1.5
		l-1.1,2.6l-0.5,1.2c-0.3,0.7-0.6,1-1,1c-0.2,0-0.3-0.1-0.5-0.2c0.2-0.7,0.3-1.2,0.3-1.6c0-0.8-0.5-1.5-1.4-2.1
		c-0.9-0.6-2.1-0.9-3.4-0.9c-3.1,0-4.6,1.3-4.6,3.8c0,0.9,0.3,1.8,1,2.6c0.7,0.8,2.1,2.1,4.3,3.9l1.9,1.6c2.4,2,3.6,4,3.6,6.2
		c0,2.4-1,4.4-3,6c-2,1.6-4.5,2.4-7.5,2.4C17.9,48,15.6,46.5,14.5,43.7z"/>
</g>
<g id="l" class="st0">
	<g id="L" class="st1">
		<path d="M9.2,45.4l3.7-2.9c1.1,0.2,2.1,0.3,2.9,0.3c1.7-0.7,2.9-1.8,3.6-3.4c0.7-1.6,1-4.1,1-7.4l0.1-3.5c0-4.5,1.6-8,4.6-10.5
			c2.5-2.1,5.2-3.1,8.1-3.1c1.2,0,2.4,0.3,3.7,0.9l-3.3,3.3c-1.4-0.9-2.7-1.3-4.1-1.3c-3.3,0-5,2.8-5,8.2l-0.1,3.1
			c0,4.2-0.4,7.3-1.2,9.3S21,42,18.7,43.3l4.7,0.3l2.1,0.2l2.5,0.2c0.7,0,1.4,0.1,2.3,0.1c3.7,0,6.6-1,8.7-3.2
			c0.3,0.3,0.3,0.5,0.3,0.6c0,0.5-0.7,1.3-2.2,2.5c-2.4,2-5.1,3-7.9,3c-1.1,0-2.6-0.1-4.2-0.2l-6.7-0.5C14.8,46,11.7,45.7,9.2,45.4z
			"/>
	</g>
</g>
<g id="xl">
	<g>
		<path d="M10.6,37.1l-0.8-2.1l-0.5-1.4c-0.2-0.5-0.4-1-0.6-1.6c-0.3-0.8-0.5-1.2-0.6-1.4c-0.5-1.2-0.9-1.9-1.4-1.9
			c-0.8,0-1.6,0.9-2.2,2.7c-0.3-0.1-0.4-0.3-0.4-0.6c0-0.9,0.4-1.9,1.2-3s1.5-1.6,2.3-1.6c0.6,0,1.1,0.4,1.5,1.1s1.1,2.2,2,4.5
			l1,2.8l0.4-0.9l0.8-1.6c2-3.9,4-5.8,6-5.8c0.7,0,1.3,0.2,1.9,0.5l-1.9,2.1c-0.4-0.2-0.7-0.4-0.9-0.4c-0.8,0-1.6,0.5-2.3,1.5
			c-0.8,1-1.8,2.7-3.1,5.3l-0.4,0.8l1,2.8l0.6,1.5l0.6,1.5c0.8,2.1,1.5,3.1,2.2,3.1c1,0,1.7-0.8,2.1-2.5c0.3,0.2,0.5,0.4,0.5,0.6
			c0,0.4-0.3,1.1-0.8,2c-0.8,1.3-1.7,2-2.6,2c-0.7,0-1.3-0.4-1.9-1.3s-1.3-2.7-2.3-5.4l-0.7-1.9l-0.3,0.6c-2.5,5.3-5,8-7.5,8
			c-0.5,0-1.1-0.2-1.8-0.5l1.9-2.1c0.3,0.2,0.7,0.3,1.1,0.3c1.1,0,2.3-1,3.5-2.9c1-1.6,1.8-3,2.3-4.2L10.6,37.1z"/>
		<path d="M17,46.5l3.6-3.1c1.1,0.2,2,0.4,2.8,0.4c1.6-0.7,2.8-1.9,3.4-3.6c0.7-1.7,1-4.3,1-7.9l0.1-3.7c0-4.8,1.4-8.5,4.3-11.2
			c2.4-2.2,5-3.3,7.6-3.3c1.1,0,2.3,0.3,3.5,0.9l-3.1,3.5C39,17.5,37.7,17,36.5,17c-3.2,0-4.7,2.9-4.7,8.7L31.6,29
			c0,4.5-0.4,7.8-1.1,9.9c-0.8,2.1-2.2,3.8-4.4,5.2l4.4,0.4l2,0.2l2.4,0.2c0.6,0,1.3,0.1,2.1,0.1c3.5,0,6.3-1.1,8.2-3.4
			c0.2,0.3,0.3,0.5,0.3,0.7c0,0.5-0.7,1.4-2,2.7c-2.3,2.1-4.8,3.2-7.5,3.2c-1.1,0-2.4-0.1-4-0.2l-6.3-0.5C22.3,47,19.5,46.8,17,46.5
			z"/>
	</g>
</g>
</svg>
