<?xml version="1.0" encoding="utf-8"?>
<!-- Generator: Adobe Illustrator 24.3.0, SVG Export Plug-In . SVG Version: 6.00 Build 0)  -->
<svg version="1.1" id="レイヤー_1" xmlns="http://www.w3.org/2000/svg" xmlns:xlink="http://www.w3.org/1999/xlink" x="0px"
	 y="0px" viewBox="0 0 56 56" style="enable-background:new 0 0 56 56;" xml:space="preserve">
<path d="M21.7,11.4v29.8c0,3.7,0.3,4.1,4.8,4.1V47H11.9v-1.8c4.5,0,4.8-0.4,4.8-4.1V11.4h-5.8c-3,0-3.5,0.3-4.5,6.4H4.2L5.4,9H33
	l1.2,8.8h-2.1c-1.1-6.2-1.5-6.4-4.6-6.4C27.5,11.4,21.7,11.4,21.7,11.4z"/>
<polygon points="47.6,14.9 51.6,14.9 45.6,8 39.6,14.9 43.6,14.9 43.6,41.1 39.6,41.1 45.6,48 51.6,41.1 47.6,41.1 "/>
</svg>
