<?xml version="1.0" encoding="utf-8"?>
<!-- Generator: Adobe Illustrator 24.3.0, SVG Export Plug-In . SVG Version: 6.00 Build 0)  -->
<svg version="1.1" id="レイヤー_1" xmlns="http://www.w3.org/2000/svg" xmlns:xlink="http://www.w3.org/1999/xlink" x="0px"
	 y="0px" viewBox="0 0 56 56" style="enable-background:new 0 0 56 56;" xml:space="preserve">
<g>
	<path d="M7.5,42.3l6,2l2.1-2.2l-4-4.1L7.5,42.3z M15,27.7c-0.6,0.6-0.9,1.5-0.6,2.3l0.8,2.6L12,35.7l5.8,5.9l3-3.1l2.6,0.8
		c0.8,0.3,1.7,0,2.3-0.7l2.1-2.5L17.4,25.5L15,27.7L15,27.7z M47.5,9.3l-3.8-3.9c-1.2-1.3-3.2-1.3-4.5-0.1L18.9,24.2l10.2,10.4
		l18.6-20.7C48.8,12.6,48.8,10.6,47.5,9.3L47.5,9.3z"/>
	<path d="M5,48h46c0.6,0,1,0.4,1,1v2c0,0.6-0.4,1-1,1H5c-0.6,0-1-0.4-1-1v-2C4,48.5,4.4,48,5,48z"/>
</g>
</svg>
