<?xml version="1.0" encoding="utf-8"?>
<!-- Generator: Adobe Illustrator 24.3.0, SVG Export Plug-In . SVG Version: 6.00 Build 0)  -->
<svg version="1.1" id="レイヤー_1" xmlns="http://www.w3.org/2000/svg" xmlns:xlink="http://www.w3.org/1999/xlink" x="0px"
	 y="0px" viewBox="0 0 56 56" style="enable-background: new 0 0 56 56;" xml:space="preserve">
<g>
	<path d="M15.7,20.1c2-1.5,4.4-2.3,7.4-2.3c2.9,0,5.3,0.7,7.2,2c1.9,1.3,3,3.1,3.2,5.4h-4.4c-0.3-1.1-1-2-2-2.7c-1-0.7-2.4-1-4.1-1
		c-1.6,0-3,0.4-4.2,1.1s-1.7,1.8-1.7,3c0,0.9,0.4,1.7,1.2,2.4c0.8,0.6,2,1.1,3.6,1.5l4.3,1c2.6,0.6,4.5,1.5,5.8,2.7
		c1.3,1.2,1.9,2.8,1.9,4.8c0,2.5-1.1,4.5-3.2,6.1s-4.8,2.3-7.9,2.3c-3.1,0-5.6-0.7-7.6-2.1c-2-1.4-3.1-3.2-3.3-5.5h4.6
		c0.4,1.2,1.1,2.1,2.2,2.8c1.1,0.7,2.5,1,4.3,1c1.9,0,3.4-0.4,4.6-1.2c1.2-0.8,1.8-1.8,1.8-3.1c0-1-0.4-1.8-1.1-2.4
		c-0.7-0.6-1.8-1.1-3.3-1.5l-4.8-1.2c-2.6-0.6-4.5-1.5-5.7-2.7c-1.2-1.2-1.8-2.8-1.8-4.8C12.7,23.5,13.7,21.6,15.7,20.1z"/>
	<g>
		<path d="M35.7,14.9c-0.6,0-1-0.5-1-1c0-0.6,0.5-1,1-1c0.6,0,1,0.5,1,1C36.8,14.5,36.3,14.9,35.7,14.9z M38.7,9.9c0-0.6,0.5-1,1-1
			c0.6,0,1,0.5,1,1s-0.5,1-1,1C39.1,11,38.7,10.5,38.7,9.9z M40.7,17.8c0,0.6-0.5,1-1,1c-0.6,0-1-0.5-1-1c0-0.6,0.5-1,1-1
			C40.3,16.8,40.7,17.3,40.7,17.8z M43.7,12.8c0.6,0,1,0.5,1,1c0,0.6-0.5,1-1,1c-0.6,0-1-0.5-1-1C42.6,13.3,43.1,12.8,43.7,12.8z"/>
		<path d="M44.2,18.3L44.2,18.3c-0.2,0.2-0.5,0.2-0.7,0.1l-8.4-8.4c-0.2-0.2-0.2-0.4,0-0.6l0.1-0.1c0.2-0.2,0.4-0.2,0.6,0l8.4,8.4
			C44.3,17.9,44.3,18.1,44.2,18.3z"/>
		<path d="M35.2,18.4L35.2,18.4c-0.2-0.2-0.2-0.5-0.1-0.7l8.4-8.4c0.2-0.2,0.4-0.2,0.6,0l0.1,0.1c0.2,0.2,0.2,0.4,0,0.6l-8.4,8.4
			C35.6,18.5,35.3,18.5,35.2,18.4z"/>
	</g>
</g>
</svg>
