<?xml version="1.0" encoding="utf-8"?>
<!-- Generator: Adobe Illustrator 24.3.0, SVG Export Plug-In . SVG Version: 6.00 Build 0)  -->
<svg version="1.1" id="レイヤー_1" xmlns="http://www.w3.org/2000/svg" xmlns:xlink="http://www.w3.org/1999/xlink" x="0px"
	 y="0px" viewBox="0 0 56 56" style="enable-background:new 0 0 56 56;" xml:space="preserve">
<path d="M48.8,31.8L47.7,31l1.1-0.8l0.1-0.1c0.7-0.7,1-1.5,1-2.5c0-1-0.4-1.8-1.1-2.5l-1.2-0.9l1.2-0.9l0.1-0.1c0.7-0.7,1-1.5,1-2.5
	c0-1-0.4-1.9-1.1-2.5L30.4,4.8c-0.7-0.6-1.5-1-2.4-1c0,0,0,0,0,0c-0.9,0-1.7,0.3-2.3,0.9L7.2,18.1l-0.1,0.1c-0.7,0.7-1,1.5-1,2.5
	c0,0.9,0.4,1.8,1.1,2.5l1.2,1L7.2,25l-0.1,0.1c-0.7,0.7-1,1.5-1,2.5c0,1,0.4,1.8,1.1,2.5L8.3,31l-1.1,0.8l-0.1,0.1
	c-0.7,0.7-1,1.5-1,2.5c0,1,0.4,1.8,1.1,2.5l18.4,14.4c0.7,0.6,1.5,1,2.4,1c0.9,0,1.8-0.3,2.4-0.9l18.4-14.4l0.1-0.1
	c0.7-0.7,1-1.5,1-2.5C49.9,33.4,49.5,32.5,48.8,31.8z M28.4,49.1c-0.2,0.2-0.5,0.2-0.8,0L9.3,34.6c-0.1-0.1-0.1-0.2-0.1-0.3
	c0-0.1,0-0.2,0.1-0.3l1.6-1.1l14.8,11.6c0.7,0.6,1.5,1,2.4,1c0.9,0,1.8-0.3,2.4-0.9l14.9-11.6l1.6,1.1c0.1,0.1,0.1,0.2,0.1,0.3
	c0,0.1,0,0.2-0.1,0.3L28.4,49.1L28.4,49.1z M27.6,6.9c0.1-0.1,0.2-0.1,0.4-0.1c0.1,0,0.2,0,0.4,0.2l18.4,13.4c0.1,0.2,0.1,0.4,0,0.6
	L28.4,35.3l-0.1,0.1c-0.2,0.2-0.5,0.2-0.8,0L9.2,21c-0.2-0.2-0.2-0.4-0.1-0.6L27.5,7L27.6,6.9z M28,38.6c0.9,0,1.8-0.3,2.4-0.9
	l14.8-11.6l1.6,1.2c0.1,0.1,0.1,0.2,0.1,0.3c0,0.1,0,0.2-0.1,0.3L28.4,42.2l-0.1,0.1c-0.2,0.2-0.5,0.2-0.8,0L9.2,27.9
	c-0.1-0.1-0.1-0.2-0.1-0.3c0-0.1,0-0.2,0.1-0.3l1.7-1.2l14.7,11.5C26.2,38.2,27.1,38.6,28,38.6z"/>
</svg>
