<?xml version="1.0" encoding="utf-8"?>
<!-- Generator: Adobe Illustrator 24.3.0, SVG Export Plug-In . SVG Version: 6.00 Build 0)  -->
<svg version="1.1" id="レイヤー_1" xmlns="http://www.w3.org/2000/svg" xmlns:xlink="http://www.w3.org/1999/xlink" x="0px"
	 y="0px" viewBox="0 0 20 20" style="enable-background:new 0 0 20 20;" xml:space="preserve">
<g>
	<g>
		<path d="M15.7,13v-1.3V3c0-0.1-0.1-0.2-0.2-0.2h-1.7c-0.1,0-0.2,0.1-0.2,0.2v8L15.7,13z"/>
		<path d="M9.7,11.7H5.9v-2c0-0.1-0.2-0.2-0.3-0.1l-3.1,3.1c-0.1,0.1-0.1,0.2,0,0.2L5.6,16c0.1,0.1,0.3,0,0.3-0.1v-2.2h5.8L9.7,11.7
			z"/>
	</g>
	<path d="M16.4,17.1l1-1c0.1-0.1,0.1-0.2,0-0.3L5,3.3c-0.1-0.1-0.2-0.1-0.3,0l-1,1c-0.1,0.1-0.1,0.2,0,0.3l12.5,12.5
		C16.2,17.1,16.3,17.1,16.4,17.1z"/>
</g>
</svg>
