<?xml version="1.0" encoding="utf-8"?>
<!-- Generator: Adobe Illustrator 24.3.0, SVG Export Plug-In . SVG Version: 6.00 Build 0)  -->
<svg version="1.1" id="レイヤー_1" xmlns="http://www.w3.org/2000/svg" xmlns:xlink="http://www.w3.org/1999/xlink" x="0px"
	 y="0px" viewBox="0 0 40 40" style="enable-background: new 0 0 40 40;" xml:space="preserve">
<g>
	<g>
		<rect x="18.9" y="24.1" width="2.4" height="10"/>
		<path d="M19.8,20.3l-5.2,3.8h11l-5.2-3.8C20.2,20.2,20,20.2,19.8,20.3z"/>
		<path d="M20.2,37.9l5.2-3.8h-11l5.2,3.8C19.8,38,20,38,20.2,37.9z"/>
	</g>
	<g>
		<path d="M36,17.5H4c-0.6,0-1-0.4-1-1v-12c0-0.6,0.4-1,1-1h32c0.6,0,1,0.4,1,1v12C37,17.1,36.6,17.5,36,17.5z M5.5,15.5h29
			c0.3,0,0.5-0.2,0.5-0.5V6c0-0.3-0.2-0.5-0.5-0.5h-29C5.2,5.5,5,5.7,5,6v9C5,15.3,5.2,15.5,5.5,15.5z"/>
		<rect x="14" y="2" width="4" height="2"/>
		<rect x="22" y="2" width="4" height="2"/>
		<rect x="30" y="2" width="4" height="2"/>
		<rect x="6" y="2" width="4" height="2"/>
	</g>
</g>
</svg>
